<svg width="138" height="146" viewBox="0 0 138 146" fill="none" xmlns="http://www.w3.org/2000/svg">
<path d="M99.6667 0C107.75 0 114.373 6.25506 114.958 14.189L115 15.3333V53.6667H126.5C132.477 53.6667 137.39 58.2277 137.947 64.0592L138 65.1667V122.667C138 134.916 128.425 144.928 116.351 145.628L115 145.667H15.3333C7.24989 145.667 0.627401 139.412 0.0420576 131.478L0 130.333V15.3333C0 7.24989 6.25506 0.627401 14.189 0.0420576L15.3333 0H99.6667ZM122.667 69H115V130.333C119.234 130.333 122.667 126.901 122.667 122.667V69ZM61.3333 76.6667H38.3333C34.0992 76.6667 30.6667 80.099 30.6667 84.3333C30.6667 88.2652 33.6263 91.5056 37.4392 91.9484L38.3333 92H61.3333C65.5676 92 69 88.5676 69 84.3333C69 80.4015 66.0405 77.1611 62.2274 76.7182L61.3333 76.6667ZM76.6667 38.3333H38.3333C34.0992 38.3333 30.6667 41.7658 30.6667 46C30.6667 50.2341 34.0992 53.6667 38.3333 53.6667H76.6667C80.901 53.6667 84.3333 50.2341 84.3333 46C84.3333 41.7658 80.901 38.3333 76.6667 38.3333Z" fill="white"/>
</svg>
